<svg width="747" height="244" viewBox="0 0 747 244" fill="none" xmlns="http://www.w3.org/2000/svg">
<g clip-path="url(#clip0_316_940)">
<path d="M130.59 78.9343L130 162.466L92.6967 170.511L96.1988 67.8806L156.619 87.2934L166.555 90.3027" stroke="#291D89" stroke-width="3.70912" stroke-miterlimit="10"/>
<path d="M94.428 119.845L145.641 121.595" stroke="#291D89" stroke-width="3.70912" stroke-miterlimit="10"/>
<path d="M122.09 65.9531L168.168 61.0164L165.237 104.248" stroke="#291D89" stroke-width="3.70912" stroke-miterlimit="10"/>
<path d="M167.106 80.3702L157.682 77.4592L85.5744 53.6407L81.0886 185.282L125.947 172.517L162.64 183.217L163.859 161.05L163.958 159.142" stroke="#291D89" stroke-width="3.70912" stroke-miterlimit="10"/>
<path d="M175.959 159.142L173.736 199.404L109.814 180.306L104.856 178.516" stroke="#291D89" stroke-width="3.70912" stroke-miterlimit="10"/>
<path d="M94.4476 56.5712L116.798 53.5226L182.235 45.2422L179.776 104.503" stroke="#291D89" stroke-width="3.70912" stroke-miterlimit="10"/>
<path d="M159.789 150.234C158.435 150.234 157.337 149.923 156.495 149.301C155.653 148.642 154.994 147.635 154.518 146.281L143.812 116.468C143.226 114.821 143.318 113.43 144.086 112.295C144.891 111.124 146.301 110.538 148.314 110.538C149.668 110.538 150.73 110.868 151.498 111.526C152.267 112.149 152.871 113.137 153.31 114.491L161.491 139.034H158.911L167.695 114.491C168.208 113.137 168.848 112.149 169.617 111.526C170.386 110.868 171.374 110.538 172.582 110.538C173.79 110.538 174.76 110.868 175.492 111.526C176.224 112.149 176.828 113.155 177.304 114.546L185.539 139.034H183.343L191.744 114.491C192.183 113.137 192.769 112.149 193.501 111.526C194.269 110.868 195.331 110.538 196.685 110.538C198.369 110.538 199.595 111.124 200.364 112.295C201.169 113.43 201.26 114.821 200.638 116.468L189.822 146.336C189.346 147.654 188.687 148.642 187.845 149.301C187.04 149.923 185.96 150.234 184.606 150.234C183.215 150.234 182.099 149.923 181.257 149.301C180.452 148.642 179.811 147.635 179.335 146.281L171.594 124.539H172.966L165.06 146.336C164.547 147.654 163.889 148.642 163.083 149.301C162.278 149.923 161.18 150.234 159.789 150.234ZM213.259 150.234C211.722 150.234 210.533 149.777 209.691 148.862C208.849 147.947 208.428 146.629 208.428 144.909V127.559C208.428 125.838 208.849 124.521 209.691 123.605C210.533 122.69 211.722 122.233 213.259 122.233C214.833 122.233 216.041 122.69 216.883 123.605C217.762 124.521 218.201 125.838 218.201 127.559V144.909C218.201 146.629 217.78 147.947 216.938 148.862C216.096 149.777 214.87 150.234 213.259 150.234ZM213.259 118.335C211.539 118.335 210.203 117.932 209.251 117.127C208.336 116.321 207.879 115.15 207.879 113.613C207.879 112.112 208.336 110.959 209.251 110.154C210.203 109.348 211.539 108.946 213.259 108.946C215.053 108.946 216.407 109.348 217.322 110.154C218.237 110.959 218.695 112.112 218.695 113.613C218.695 115.15 218.237 116.321 217.322 117.127C216.407 117.932 215.053 118.335 213.259 118.335ZM228.701 150.234C227.164 150.234 225.975 149.813 225.133 148.972C224.291 148.13 223.87 146.903 223.87 145.293V127.119C223.87 125.545 224.272 124.338 225.078 123.496C225.92 122.654 227.109 122.233 228.647 122.233C230.184 122.233 231.355 122.654 232.16 123.496C232.966 124.338 233.368 125.545 233.368 127.119V129.7L232.764 127.449C233.643 125.728 234.887 124.411 236.498 123.496C238.145 122.581 240.012 122.123 242.098 122.123C244.258 122.123 246.033 122.544 247.424 123.386C248.815 124.191 249.858 125.472 250.554 127.229C251.249 128.95 251.597 131.127 251.597 133.763V145.293C251.597 146.903 251.176 148.13 250.334 148.972C249.492 149.813 248.284 150.234 246.71 150.234C245.136 150.234 243.928 149.813 243.087 148.972C242.245 148.13 241.824 146.903 241.824 145.293V134.147C241.824 132.5 241.531 131.329 240.945 130.633C240.396 129.938 239.573 129.59 238.475 129.59C237.01 129.59 235.839 130.066 234.961 131.018C234.082 131.933 233.643 133.177 233.643 134.751V145.293C233.643 148.587 231.996 150.234 228.701 150.234ZM267.708 150.344C265.402 150.344 263.353 149.777 261.559 148.642C259.802 147.507 258.411 145.879 257.386 143.756C256.398 141.633 255.904 139.125 255.904 136.234C255.904 133.269 256.398 130.743 257.386 128.657C258.411 126.57 259.802 124.96 261.559 123.825C263.353 122.69 265.402 122.123 267.708 122.123C269.722 122.123 271.533 122.599 273.144 123.551C274.754 124.502 275.834 125.728 276.383 127.229H275.779V115.48C275.779 113.869 276.2 112.643 277.042 111.801C277.884 110.959 279.092 110.538 280.666 110.538C282.203 110.538 283.393 110.959 284.235 111.801C285.113 112.643 285.552 113.869 285.552 115.48V145.293C285.552 146.903 285.131 148.13 284.29 148.972C283.484 149.813 282.295 150.234 280.721 150.234C279.183 150.234 277.994 149.813 277.152 148.972C276.31 148.13 275.889 146.903 275.889 145.293V142.163L276.493 144.854C275.981 146.501 274.901 147.837 273.254 148.862C271.643 149.85 269.795 150.344 267.708 150.344ZM270.838 143.152C271.826 143.152 272.705 142.914 273.473 142.438C274.242 141.925 274.828 141.175 275.23 140.187C275.67 139.162 275.889 137.844 275.889 136.234C275.889 133.781 275.413 132.024 274.462 130.963C273.51 129.865 272.302 129.316 270.838 129.316C269.85 129.316 268.971 129.553 268.202 130.029C267.434 130.505 266.83 131.256 266.391 132.28C265.951 133.269 265.732 134.586 265.732 136.234C265.732 138.649 266.208 140.406 267.159 141.504C268.111 142.603 269.337 143.152 270.838 143.152ZM304.885 150.344C301.884 150.344 299.267 149.777 297.034 148.642C294.801 147.507 293.063 145.879 291.818 143.756C290.574 141.633 289.951 139.125 289.951 136.234C289.951 134.037 290.299 132.079 290.994 130.359C291.69 128.602 292.696 127.119 294.014 125.911C295.332 124.667 296.906 123.734 298.736 123.111C300.566 122.452 302.616 122.123 304.885 122.123C307.887 122.123 310.504 122.69 312.737 123.825C314.97 124.96 316.69 126.589 317.898 128.712C319.142 130.798 319.765 133.305 319.765 136.234C319.765 138.393 319.417 140.351 318.721 142.108C318.026 143.865 317.019 145.366 315.702 146.611C314.421 147.819 312.847 148.752 310.98 149.411C309.15 150.033 307.118 150.344 304.885 150.344ZM304.885 143.152C305.874 143.152 306.752 142.914 307.521 142.438C308.289 141.925 308.875 141.175 309.278 140.187C309.717 139.162 309.937 137.844 309.937 136.234C309.937 133.781 309.461 132.024 308.509 130.963C307.557 129.865 306.35 129.316 304.885 129.316C303.897 129.316 303.019 129.553 302.25 130.029C301.481 130.505 300.877 131.256 300.438 132.28C299.999 133.269 299.779 134.586 299.779 136.234C299.779 138.649 300.255 140.406 301.207 141.504C302.158 142.603 303.385 143.152 304.885 143.152ZM335.295 150.234C334.051 150.234 332.971 149.941 332.056 149.356C331.141 148.734 330.409 147.782 329.86 146.501L322.393 128.437C321.917 127.302 321.752 126.277 321.899 125.362C322.045 124.411 322.484 123.66 323.216 123.111C323.985 122.526 325.028 122.233 326.346 122.233C327.481 122.233 328.414 122.507 329.146 123.056C329.878 123.569 330.537 124.594 331.123 126.131L336.393 139.967H335.24L340.786 125.088C341.152 124.1 341.646 123.386 342.268 122.947C342.927 122.471 343.751 122.233 344.739 122.233C345.801 122.233 346.642 122.471 347.265 122.947C347.887 123.422 348.381 124.136 348.747 125.088L354.292 139.967H353.304L358.63 125.802C359.142 124.411 359.801 123.477 360.607 123.002C361.412 122.489 362.272 122.233 363.187 122.233C364.432 122.233 365.383 122.526 366.042 123.111C366.701 123.697 367.067 124.466 367.14 125.417C367.25 126.369 367.067 127.394 366.591 128.492L359.179 146.446C358.667 147.727 357.953 148.679 357.038 149.301C356.123 149.923 355.043 150.234 353.798 150.234C352.517 150.234 351.419 149.923 350.504 149.301C349.626 148.679 348.912 147.727 348.363 146.446L342.323 131.347H346.331L340.621 146.336C340.109 147.654 339.413 148.642 338.535 149.301C337.656 149.923 336.576 150.234 335.295 150.234ZM381.437 150.344C379.827 150.344 378.18 150.216 376.496 149.96C374.849 149.74 373.348 149.319 371.994 148.697C371.079 148.331 370.42 147.837 370.017 147.215C369.651 146.592 369.468 145.933 369.468 145.238C369.505 144.543 369.706 143.92 370.072 143.371C370.475 142.786 370.987 142.383 371.609 142.163C372.268 141.907 373 141.925 373.806 142.218C375.343 142.767 376.716 143.17 377.923 143.426C379.168 143.646 380.358 143.756 381.492 143.756C382.847 143.756 383.817 143.573 384.402 143.206C384.988 142.804 385.281 142.291 385.281 141.669C385.281 141.12 385.079 140.699 384.677 140.406C384.311 140.114 383.78 139.912 383.084 139.802L376.99 138.814C374.721 138.411 372.964 137.588 371.719 136.343C370.475 135.062 369.852 133.397 369.852 131.347C369.852 129.444 370.383 127.815 371.445 126.461C372.543 125.07 374.025 124.008 375.892 123.276C377.795 122.507 379.973 122.123 382.426 122.123C384.073 122.123 385.574 122.251 386.928 122.507C388.282 122.727 389.6 123.148 390.881 123.77C391.686 124.1 392.254 124.575 392.583 125.198C392.912 125.82 393.041 126.479 392.967 127.174C392.894 127.833 392.656 128.455 392.254 129.041C391.888 129.59 391.375 129.974 390.716 130.194C390.057 130.377 389.289 130.322 388.41 130.029C387.202 129.553 386.123 129.206 385.171 128.986C384.256 128.767 383.396 128.657 382.59 128.657C381.09 128.657 380.028 128.858 379.406 129.261C378.784 129.663 378.472 130.176 378.472 130.798C378.472 131.274 378.637 131.676 378.967 132.006C379.296 132.299 379.809 132.5 380.504 132.61L386.598 133.653C388.941 134.019 390.735 134.824 391.979 136.069C393.26 137.277 393.901 138.924 393.901 141.01C393.901 143.975 392.766 146.281 390.497 147.928C388.227 149.539 385.207 150.344 381.437 150.344ZM403.844 149.74C402.123 149.74 400.806 149.301 399.891 148.422C399.012 147.507 398.573 146.208 398.573 144.524V116.248C398.573 114.564 399.012 113.283 399.891 112.405C400.806 111.49 402.123 111.032 403.844 111.032H422.456C423.774 111.032 424.762 111.362 425.421 112.021C426.08 112.679 426.41 113.631 426.41 114.876C426.41 116.157 426.08 117.145 425.421 117.84C424.762 118.499 423.774 118.829 422.456 118.829H408.236V126.186H421.249C422.53 126.186 423.5 126.515 424.158 127.174C424.854 127.833 425.202 128.803 425.202 130.084C425.202 131.365 424.854 132.335 424.158 132.994C423.5 133.653 422.53 133.982 421.249 133.982H408.236V141.944H422.456C423.774 141.944 424.762 142.291 425.421 142.987C426.08 143.646 426.41 144.597 426.41 145.842C426.41 147.123 426.08 148.093 425.421 148.752C424.762 149.411 423.774 149.74 422.456 149.74H403.844ZM436.471 150.234C434.934 150.234 433.744 149.813 432.903 148.972C432.061 148.13 431.64 146.903 431.64 145.293V127.119C431.64 125.545 432.042 124.338 432.848 123.496C433.689 122.654 434.879 122.233 436.416 122.233C437.954 122.233 439.125 122.654 439.93 123.496C440.736 124.338 441.138 125.545 441.138 127.119V129.7L440.534 127.449C441.413 125.728 442.657 124.411 444.268 123.496C445.915 122.581 447.782 122.123 449.868 122.123C452.028 122.123 453.803 122.544 455.194 123.386C456.585 124.191 457.628 125.472 458.323 127.229C459.019 128.95 459.367 131.127 459.367 133.763V145.293C459.367 146.903 458.946 148.13 458.104 148.972C457.262 149.813 456.054 150.234 454.48 150.234C452.906 150.234 451.698 149.813 450.856 148.972C450.015 148.13 449.594 146.903 449.594 145.293V134.147C449.594 132.5 449.301 131.329 448.715 130.633C448.166 129.938 447.342 129.59 446.244 129.59C444.78 129.59 443.609 130.066 442.73 131.018C441.852 131.933 441.413 133.177 441.413 134.751V145.293C441.413 148.587 439.766 150.234 436.471 150.234ZM478.718 150.344C475.68 150.344 473.026 149.777 470.756 148.642C468.524 147.507 466.785 145.879 465.54 143.756C464.296 141.596 463.674 139.07 463.674 136.179C463.674 133.982 464.021 132.024 464.717 130.304C465.412 128.547 466.419 127.064 467.737 125.857C469.091 124.649 470.683 123.734 472.513 123.111C474.38 122.452 476.448 122.123 478.718 122.123C479.779 122.123 480.895 122.233 482.067 122.452C483.238 122.635 484.446 123.002 485.691 123.551C486.569 123.88 487.173 124.392 487.502 125.088C487.868 125.747 488.015 126.461 487.942 127.229C487.905 127.998 487.685 128.693 487.283 129.316C486.917 129.938 486.386 130.359 485.691 130.578C485.032 130.798 484.281 130.706 483.439 130.304C482.854 130.011 482.232 129.81 481.573 129.7C480.95 129.553 480.346 129.48 479.761 129.48C478.772 129.48 477.894 129.627 477.125 129.92C476.393 130.212 475.771 130.652 475.259 131.237C474.746 131.786 474.344 132.482 474.051 133.324C473.794 134.165 473.666 135.117 473.666 136.179C473.666 138.302 474.197 139.967 475.259 141.175C476.32 142.383 477.821 142.987 479.761 142.987C480.346 142.987 480.95 142.932 481.573 142.822C482.195 142.676 482.817 142.456 483.439 142.163C484.281 141.761 485.032 141.687 485.691 141.944C486.349 142.163 486.88 142.584 487.283 143.206C487.685 143.829 487.905 144.524 487.942 145.293C487.978 146.025 487.814 146.739 487.447 147.434C487.081 148.093 486.459 148.587 485.581 148.917C484.373 149.466 483.183 149.832 482.012 150.015C480.877 150.234 479.779 150.344 478.718 150.344ZM504.666 150.344C501.665 150.344 499.048 149.777 496.815 148.642C494.582 147.507 492.843 145.879 491.599 143.756C490.354 141.633 489.732 139.125 489.732 136.234C489.732 134.037 490.08 132.079 490.775 130.359C491.471 128.602 492.477 127.119 493.795 125.911C495.113 124.667 496.687 123.734 498.517 123.111C500.347 122.452 502.397 122.123 504.666 122.123C507.668 122.123 510.285 122.69 512.518 123.825C514.75 124.96 516.471 126.589 517.679 128.712C518.923 130.798 519.545 133.305 519.545 136.234C519.545 138.393 519.198 140.351 518.502 142.108C517.807 143.865 516.8 145.366 515.482 146.611C514.201 147.819 512.627 148.752 510.761 149.411C508.93 150.033 506.899 150.344 504.666 150.344ZM504.666 143.152C505.654 143.152 506.533 142.914 507.302 142.438C508.07 141.925 508.656 141.175 509.059 140.187C509.498 139.162 509.717 137.844 509.717 136.234C509.717 133.781 509.242 132.024 508.29 130.963C507.338 129.865 506.13 129.316 504.666 129.316C503.678 129.316 502.799 129.553 502.031 130.029C501.262 130.505 500.658 131.256 500.219 132.28C499.78 133.269 499.56 134.586 499.56 136.234C499.56 138.649 500.036 140.406 500.988 141.504C501.939 142.603 503.165 143.152 504.666 143.152ZM534.565 150.344C532.259 150.344 530.209 149.777 528.416 148.642C526.659 147.507 525.268 145.879 524.243 143.756C523.255 141.633 522.761 139.125 522.761 136.234C522.761 133.269 523.255 130.743 524.243 128.657C525.268 126.57 526.659 124.96 528.416 123.825C530.209 122.69 532.259 122.123 534.565 122.123C536.578 122.123 538.39 122.599 540.001 123.551C541.611 124.502 542.691 125.728 543.24 127.229H542.636V115.48C542.636 113.869 543.057 112.643 543.899 111.801C544.741 110.959 545.949 110.538 547.523 110.538C549.06 110.538 550.25 110.959 551.092 111.801C551.97 112.643 552.409 113.869 552.409 115.48V145.293C552.409 146.903 551.988 148.13 551.147 148.972C550.341 149.813 549.152 150.234 547.578 150.234C546.04 150.234 544.851 149.813 544.009 148.972C543.167 148.13 542.746 146.903 542.746 145.293V142.163L543.35 144.854C542.838 146.501 541.758 147.837 540.111 148.862C538.5 149.85 536.652 150.344 534.565 150.344ZM537.695 143.152C538.683 143.152 539.562 142.914 540.33 142.438C541.099 141.925 541.685 141.175 542.087 140.187C542.526 139.162 542.746 137.844 542.746 136.234C542.746 133.781 542.27 132.024 541.319 130.963C540.367 129.865 539.159 129.316 537.695 129.316C536.707 129.316 535.828 129.553 535.059 130.029C534.291 130.505 533.687 131.256 533.248 132.28C532.808 133.269 532.589 134.586 532.589 136.234C532.589 138.649 533.065 140.406 534.016 141.504C534.968 142.603 536.194 143.152 537.695 143.152ZM572.785 150.344C569.491 150.344 566.636 149.777 564.22 148.642C561.841 147.471 560.011 145.824 558.73 143.701C557.449 141.578 556.808 139.07 556.808 136.179C556.808 133.397 557.412 130.963 558.62 128.876C559.865 126.753 561.548 125.106 563.671 123.935C565.831 122.727 568.283 122.123 571.029 122.123C573.042 122.123 574.872 122.452 576.519 123.111C578.166 123.734 579.575 124.667 580.747 125.911C581.918 127.119 582.796 128.583 583.382 130.304C584.004 132.024 584.316 133.946 584.316 136.069C584.316 136.801 584.114 137.35 583.712 137.716C583.309 138.045 582.668 138.21 581.79 138.21H564.989V133.598H577.178L576.299 134.312C576.299 132.958 576.116 131.859 575.75 131.018C575.384 130.176 574.835 129.535 574.103 129.096C573.408 128.657 572.529 128.437 571.468 128.437C570.333 128.437 569.345 128.712 568.503 129.261C567.698 129.773 567.075 130.542 566.636 131.567C566.197 132.592 565.977 133.873 565.977 135.41V135.904C565.977 138.503 566.545 140.37 567.679 141.504C568.851 142.603 570.644 143.152 573.06 143.152C573.865 143.152 574.78 143.06 575.805 142.877C576.867 142.657 577.873 142.365 578.825 141.999C579.777 141.633 580.6 141.578 581.296 141.834C581.991 142.053 582.522 142.456 582.888 143.042C583.291 143.591 583.51 144.231 583.547 144.963C583.583 145.659 583.419 146.354 583.053 147.05C582.687 147.709 582.083 148.221 581.241 148.587C579.96 149.173 578.587 149.612 577.123 149.905C575.695 150.198 574.25 150.344 572.785 150.344ZM599.068 150.344C596.762 150.344 594.712 149.777 592.918 148.642C591.161 147.507 589.771 145.879 588.746 143.756C587.757 141.633 587.263 139.125 587.263 136.234C587.263 133.269 587.757 130.743 588.746 128.657C589.771 126.57 591.161 124.96 592.918 123.825C594.712 122.69 596.762 122.123 599.068 122.123C601.081 122.123 602.893 122.599 604.503 123.551C606.114 124.502 607.194 125.728 607.743 127.229H607.139V115.48C607.139 113.869 607.56 112.643 608.402 111.801C609.243 110.959 610.451 110.538 612.025 110.538C613.563 110.538 614.752 110.959 615.594 111.801C616.473 112.643 616.912 113.869 616.912 115.48V145.293C616.912 146.903 616.491 148.13 615.649 148.972C614.844 149.813 613.654 150.234 612.08 150.234C610.543 150.234 609.353 149.813 608.511 148.972C607.67 148.13 607.249 146.903 607.249 145.293V142.163L607.853 144.854C607.34 146.501 606.26 147.837 604.613 148.862C603.003 149.85 601.154 150.344 599.068 150.344ZM602.197 143.152C603.186 143.152 604.064 142.914 604.833 142.438C605.601 141.925 606.187 141.175 606.59 140.187C607.029 139.162 607.249 137.844 607.249 136.234C607.249 133.781 606.773 132.024 605.821 130.963C604.869 129.865 603.661 129.316 602.197 129.316C601.209 129.316 600.331 129.553 599.562 130.029C598.793 130.505 598.189 131.256 597.75 132.28C597.311 133.269 597.091 134.586 597.091 136.234C597.091 138.649 597.567 140.406 598.519 141.504C599.47 142.603 600.697 143.152 602.197 143.152Z" fill="#291D89"/>
<path d="M65.6637 101.12L30.2495 123.542L65.6637 138.176" stroke="#291D89" stroke-width="3.70912" stroke-miterlimit="10"/>
<path d="M680.316 113.276L715.73 135.698L680.316 150.331" stroke="#291D89" stroke-width="3.70912" stroke-miterlimit="10"/>
<path d="M674.414 93.3906L651.69 170.511" stroke="#291D89" stroke-width="3.70912" stroke-miterlimit="10"/>
</g>
<defs>
<clipPath id="clip0_316_940">
<rect width="694" height="159" fill="white" transform="translate(26 43)"/>
</clipPath>
</defs>
</svg>
